<svg width="100%" viewBox="0 0 680 680" role="img" xmlns="http://www.w3.org/2000/svg" style="">
  <title style="fill:rgb(0, 0, 0);stroke:none;color:rgb(255, 255, 255);stroke-width:1px;stroke-linecap:butt;stroke-linejoin:miter;opacity:1;font-family:&quot;Anthropic Sans&quot;, -apple-system, BlinkMacSystemFont, &quot;Segoe UI&quot;, sans-serif;font-size:16px;font-weight:400;text-anchor:start;dominant-baseline:auto">Logo MongoDB vectorisé</title>
  <desc style="fill:rgb(0, 0, 0);stroke:none;color:rgb(255, 255, 255);stroke-width:1px;stroke-linecap:butt;stroke-linejoin:miter;opacity:1;font-family:&quot;Anthropic Sans&quot;, -apple-system, BlinkMacSystemFont, &quot;Segoe UI&quot;, sans-serif;font-size:16px;font-weight:400;text-anchor:start;dominant-baseline:auto">Logo MongoDB avec fond dégradé violet et feuille sombre centrée</desc>
  <defs>
    <linearGradient id="bgGrad" x1="0%" y1="0%" x2="100%" y2="100%">
      <stop offset="0%" style="stop-color:#9b5fc0"/>
      <stop offset="100%" style="stop-color:#d886c8"/>
    </linearGradient>
    <linearGradient id="innerGrad" x1="0%" y1="0%" x2="100%" y2="100%">
      <stop offset="0%" style="stop-color:#b06fd4"/>
      <stop offset="100%" style="stop-color:#e8a0d8"/>
    </linearGradient>
    <clipPath id="outerClip">
      <rect x="30" y="30" width="620" height="620" rx="90" ry="90"/>
    </clipPath>
    <clipPath id="innerClip">
      <rect x="60" y="60" width="560" height="560" rx="70" ry="70"/>
    </clipPath>
  </defs>

  <rect x="30" y="30" width="620" height="620" rx="90" ry="90" fill="#1a1a1a" style="fill:rgb(26, 26, 26);stroke:none;color:rgb(255, 255, 255);stroke-width:1px;stroke-linecap:butt;stroke-linejoin:miter;opacity:1;font-family:&quot;Anthropic Sans&quot;, -apple-system, BlinkMacSystemFont, &quot;Segoe UI&quot;, sans-serif;font-size:16px;font-weight:400;text-anchor:start;dominant-baseline:auto"/>

  <rect x="60" y="60" width="560" height="560" rx="70" ry="70" fill="url(#bgGrad)" style="stroke:none;color:rgb(255, 255, 255);stroke-width:1px;stroke-linecap:butt;stroke-linejoin:miter;opacity:1;font-family:&quot;Anthropic Sans&quot;, -apple-system, BlinkMacSystemFont, &quot;Segoe UI&quot;, sans-serif;font-size:16px;font-weight:400;text-anchor:start;dominant-baseline:auto"/>

  <rect x="80" y="80" width="520" height="520" rx="55" ry="55" fill="url(#innerGrad)" style="stroke:none;color:rgb(255, 255, 255);stroke-width:1px;stroke-linecap:butt;stroke-linejoin:miter;opacity:1;font-family:&quot;Anthropic Sans&quot;, -apple-system, BlinkMacSystemFont, &quot;Segoe UI&quot;, sans-serif;font-size:16px;font-weight:400;text-anchor:start;dominant-baseline:auto"/>

  <path d="&#10;    M 340 110&#10;    C 340 110, 460 200, 460 360&#10;    C 460 460, 390 540, 355 565&#10;    L 352 580&#10;    L 348 580&#10;    L 345 565&#10;    C 310 540, 220 460, 220 360&#10;    C 220 200, 340 110, 340 110 Z&#10;  " fill="#2d2870" style="fill:rgb(45, 40, 112);stroke:none;color:rgb(255, 255, 255);stroke-width:1px;stroke-linecap:butt;stroke-linejoin:miter;opacity:1;font-family:&quot;Anthropic Sans&quot;, -apple-system, BlinkMacSystemFont, &quot;Segoe UI&quot;, sans-serif;font-size:16px;font-weight:400;text-anchor:start;dominant-baseline:auto"/>

  <path d="&#10;    M 340 130&#10;    L 340 555&#10;  " stroke="#c8b8e8" stroke-width="6" stroke-linecap="round" fill="none" style="fill:none;stroke:rgb(200, 184, 232);color:rgb(255, 255, 255);stroke-width:6px;stroke-linecap:round;stroke-linejoin:miter;opacity:1;font-family:&quot;Anthropic Sans&quot;, -apple-system, BlinkMacSystemFont, &quot;Segoe UI&quot;, sans-serif;font-size:16px;font-weight:400;text-anchor:start;dominant-baseline:auto"/>

  <path d="&#10;    M 340 555&#10;    L 340 570&#10;    C 337 575, 336 578, 336 580&#10;    L 344 580&#10;    C 344 578, 343 575, 340 570&#10;    Z&#10;  " fill="#2d2870" style="fill:rgb(45, 40, 112);stroke:none;color:rgb(255, 255, 255);stroke-width:1px;stroke-linecap:butt;stroke-linejoin:miter;opacity:1;font-family:&quot;Anthropic Sans&quot;, -apple-system, BlinkMacSystemFont, &quot;Segoe UI&quot;, sans-serif;font-size:16px;font-weight:400;text-anchor:start;dominant-baseline:auto"/>
</svg>